PathFileType	4	(X/Y/Z)	C:\Users\Basilio\Documents\Thesis Gigler\squatting_fais\c3dfiles\040\SJ_pre4\markers_experimental.trc
DataRate	CameraRate	NumFrames	NumMarkers	Units	OrigDataRate	OrigDataStartFrame	OrigNumFrames
200.000000	200.000000	4	63	mm	200.000000	148	1189
Frame#	Time	FHD			LBHD			RBHD			C7			T10			CLAV			LSHO			LUUPA			LMUPA			LDUPA			LLEP			LMEP			LRAD			LUL			LRFIN			RSHO			RUPA1			RMUPA			RDUPA			RLEP			RMEP			RRAD			RUL			RUFIN			LASI			RASI			USACR			LSACR			RSACR			LTHI1			LTHI2			LTHI3			LTHI4			LLFC			LMFC			LTIB1			LTIB2			LTIB3			LTIB4			LLMAL			LMMAL			LHEE			LMT1			LMT2			LMT5			RTHI			RTHI2			RTHI3			RTHI4			RLFC			RMFC			RTIB1			RTIB2			RTIB3			RTIB4			RLMAL			RMMAL			RHEE			RMT1			RMT2			RMT5			*61			*62			
		X1	Y1	Z1	X2	Y2	Z2	X3	Y3	Z3	X4	Y4	Z4	X5	Y5	Z5	X6	Y6	Z6	X7	Y7	Z7	X8	Y8	Z8	X9	Y9	Z9	X10	Y10	Z10	X11	Y11	Z11	X12	Y12	Z12	X13	Y13	Z13	X14	Y14	Z14	X15	Y15	Z15	X16	Y16	Z16	X17	Y17	Z17	X18	Y18	Z18	X19	Y19	Z19	X20	Y20	Z20	X21	Y21	Z21	X22	Y22	Z22	X23	Y23	Z23	X24	Y24	Z24	X25	Y25	Z25	X26	Y26	Z26	X27	Y27	Z27	X28	Y28	Z28	X29	Y29	Z29	X30	Y30	Z30	X31	Y31	Z31	X32	Y32	Z32	X33	Y33	Z33	X34	Y34	Z34	X35	Y35	Z35	X36	Y36	Z36	X37	Y37	Z37	X38	Y38	Z38	X39	Y39	Z39	X40	Y40	Z40	X41	Y41	Z41	X42	Y42	Z42	X43	Y43	Z43	X44	Y44	Z44	X45	Y45	Z45	X46	Y46	Z46	X47	Y47	Z47	X48	Y48	Z48	X49	Y49	Z49	X50	Y50	Z50	X51	Y51	Z51	X52	Y52	Z52	X53	Y53	Z53	X54	Y54	Z54	X55	Y55	Z55	X56	Y56	Z56	X57	Y57	Z57	X58	Y58	Z58	X59	Y59	Z59	X60	Y60	Z60	X61	Y61	Z61	X62	Y62	Z62	X63	Y63	Z63	

149	0.74	-212.9965362548829	1752.576049804688	-874.9160156250002	-340.5123901367188	1699.390625	-902.0847167968752	-375.1058044433594	1656.06396484375	-766.0775756835939	-396.1726074218751	1552.328125	-824.6440429687502	-469.6052551269532	1235.60205078125	-821.4561157226565	-284.1078491210938	1462.05419921875	-825.5095214843752	-350.8112487792969	1520.11376953125	-993.726013183594	-462.2996520996095	1416.651489257813	-1132.348388671875	-447.171844482422	1368.465698242188	-1136.068969726563	-495.8312377929689	1370.866455078125	-1173.036010742188	-536.9039916992189	1327.298583984375	-1208.2119140625	-589.4236450195314	1319.59228515625	-1152.805419921875	-482.4706420898439	1081.774780273438	-1053.617553710938	-445.136444091797	1063.108276367188	-1115.961059570313	-425.9322509765626	1086.750366210938	-1018.471862792969	-336.7019348144532	1511.694702148438	-653.2008056640626	-470.8325195312501	1446.022094726563	-515.8377685546876	-455.2632446289064	1402.333129882813	-497.8904418945314	-506.6145935058595	1409.437622070313	-467.6536560058595	-529.8360595703126	1355.540893554688	-423.872283935547	-589.0587768554689	1336.271606445313	-483.5783081054689	-443.2767944335939	1135.9482421875	-582.5997314453126	-417.3262023925782	1104.1904296875	-518.1881713867189	-383.0403137207032	1115.636352539063	-620.2114868164064	-317.5923461914063	1047.7734375	-938.2959594726565	-306.0653076171876	1044.351196289063	-708.9094238281251	-492.0508422851564	1097.947387695313	-813.451599121094	-501.6911010742189	1067.777587890625	-839.3858642578127	-500.9712829589845	1068.68115234375	-784.599060058594	-434.0049438476564	803.9451904296877	-1024.670776367188	-390.3492431640626	735.8156738281251	-1051.500122070313	-344.5651245117188	745.4253540039064	-1057.480834960938	-405.2417602539064	678.5890502929689	-1046.015014648438	-374.7714233398438	550.7520751953126	-1068.569580078125	-353.6271667480469	505.8537597656251	-945.6190185546877	-339.5692749023438	324.6852111816407	-1082.765869140625	-416.4291992187501	295.9633789062501	-1117.123901367188	-374.1141357421876	285.4069824218751	-1112.088500976563	-361.9509277343751	201.3338012695313	-1096.571411132813	-427.3187561035157	107.4101791381836	-1120.9775390625	-383.2909851074219	114.3202362060547	-1042.052490234375	-474.7086486816407	45.03033447265626	-1073.263671875	-252.686508178711	65.46992492675783	-1081.292724609375	-260.4655456542969	64.62499237060548	-1126.877807617188	-311.6802978515626	35.53024291992188	-1167.623168945313	-378.4622192382813	793.3674926757815	-620.9223022460939	-346.5948791503907	735.1146240234376	-620.5540771484376	-313.8989257812501	734.8605346679689	-626.9564208984376	-379.5770263671876	658.6926879882814	-627.7089233398439	-379.4895935058594	522.7640991210939	-626.4792480468751	-374.3128051757813	504.8627014160157	-758.6620483398439	-349.2299804687501	330.0672302246094	-636.0238037109376	-429.7509155273439	262.7006530761719	-611.9528198242189	-385.6214294433595	253.5266418457032	-619.5215454101564	-372.0899353027344	204.1283569335938	-648.6537475585939	-439.4332580566407	97.7814636230469	-626.0341796875001	-406.9138183593751	106.2252426147461	-710.7374877929689	-489.1083068847657	45.46009826660157	-691.4358520507814	-269.0625610351563	58.39892578125001	-649.3359375000001	-282.3323059082032	60.24037170410158	-611.5167846679689	-333.0846557617188	35.2110710144043	-568.1296997070314	nan	nan	nan	nan	nan	nan	
150	0.745	-213.1561737060547	1752.517700195313	-875.023864746094	-340.6828308105469	1699.245361328125	-902.2229003906252	-375.2572631835938	1655.814697265625	-766.2242431640626	-396.3413391113282	1551.9814453125	-824.8203735351565	-469.4748840332032	1235.355346679688	-822.0378417968752	-284.1511840820313	1461.798461914063	-825.9041748046877	-351.0979309082032	1519.8310546875	-994.0888671875002	-462.8337402343751	1415.97021484375	-1132.34912109375	-447.5913391113282	1368.018920898438	-1136.348754882813	-496.1985473632814	1370.239868164063	-1173.013427734375	-537.4659423828126	1326.5009765625	-1208.140869140625	-589.6514282226564	1318.713012695313	-1152.468505859375	-482.759246826172	1080.626098632813	-1054.151611328125	-445.2170715332032	1062.208374023438	-1116.355224609375	-425.8318786621095	1085.965576171875	-1018.8984375	-336.6107788085938	1511.023071289063	-653.4981689453126	-470.9152221679689	1444.67529296875	-516.2069702148439	-454.8386230468751	1401.192626953125	-498.0488891601564	-506.2719726562501	1408.382202148438	-467.7351379394532	-529.7791137695314	1354.021606445313	-424.0645141601564	-588.5565185546876	1334.855102539063	-483.8426208496095	-443.1602478027345	1134.912109375	-583.4887084960939	-416.8547668457032	1103.078002929688	-518.8659667968751	-382.6893615722657	1114.95947265625	-621.0145874023439	-317.3489074707032	1047.3974609375	-938.7152099609377	-305.8678588867188	1044.19970703125	-709.4371337890626	-491.9739074707032	1097.593383789063	-813.9336547851565	-501.544891357422	1067.458984375	-839.7414550781252	-501.0511169433595	1068.453002929688	-785.1182861328127	-433.8746948242189	803.1976318359377	-1024.710815429688	-390.6288452148439	735.4115600585939	-1051.381958007813	-344.6972351074219	744.7371826171876	-1057.454711914063	-405.3755798339845	678.0247802734376	-1045.78759765625	-374.9747924804688	550.2940673828126	-1068.310668945313	-353.6906433105469	505.0659179687501	-945.2742309570315	-339.9181518554688	324.1208801269532	-1082.222778320313	-417.0322570800782	295.0842895507813	-1116.602416992188	-374.5103454589844	284.8863220214844	-1111.603881835938	-362.1363525390626	200.5859069824219	-1095.983520507813	-426.8267517089845	106.637451171875	-1120.375244140625	-383.2124328613282	113.6419143676758	-1041.587036132813	-475.1858215332032	44.68795776367188	-1072.794921875	-253.4835510253907	63.39592742919923	-1080.462524414063	-260.6298522949219	63.46422195434572	-1126.2705078125	-311.9041442871094	35.33755111694337	-1167.680541992188	-378.1570739746094	793.409362792969	-621.1384887695314	-346.3841552734376	735.0142211914064	-620.7783203125001	-313.5382690429688	734.9566040039064	-627.1694946289064	-379.2373657226563	658.7569580078126	-627.7892456054689	-379.2186889648438	522.7601928710939	-626.7098388671876	-374.1044921875001	504.781463623047	-758.7605590820314	-348.9977722167969	330.0513000488282	-636.2126464843751	-429.7085876464845	262.7238159179688	-612.0391845703126	-385.391082763672	253.5509490966797	-619.6309204101564	-372.0472717285157	204.2992401123047	-648.7105712890626	-439.4527893066407	97.8100509643555	-626.0950927734376	-406.740692138672	106.0459976196289	-710.7553100585939	-489.1016235351564	45.48729324340821	-691.4098510742189	-269.0536193847657	58.35957717895509	-649.3112792968751	-282.3846435546876	60.11367034912111	-611.4735107421876	-333.1054992675782	35.19195556640626	-568.1074218750001	nan	nan	nan	nan	nan	nan	
151	0.75	-213.4168395996094	1752.388305664063	-875.1692504882815	-340.8768005371094	1699.053588867188	-902.4150390625002	-375.3646850585938	1655.68994140625	-766.4795532226564	-396.426239013672	1551.852783203125	-825.039978027344	-469.5051879882814	1235.05078125	-822.7380371093752	-284.2989807128907	1461.5625	-826.2363891601565	-351.3587646484376	1519.609008789063	-994.5219726562502	-463.0650634765626	1415.366333007813	-1132.580078125	-448.237030029297	1367.813842773438	-1136.471557617188	-496.6448974609376	1369.461059570313	-1173.076538085938	-538.1262817382814	1325.761352539063	-1208.035400390625	-589.9117431640626	1317.758178710938	-1152.255981445313	-482.6875000000001	1079.8134765625	-1054.528930664063	-445.0070190429689	1061.589721679688	-1116.593994140625	-425.8005981445314	1085.253662109375	-1019.324645996094	-336.4822692871094	1510.625854492188	-653.6781616210939	-470.5242004394532	1443.718383789063	-515.9498901367189	-453.843719482422	1400.27587890625	-497.9163208007814	-505.8791503906251	1406.899536132813	-467.957733154297	-529.2670288085939	1352.605712890625	-424.2864379882814	-588.1615600585939	1333.486694335938	-483.9942932128907	-442.8239135742189	1133.845458984375	-584.3974609375001	-416.1821899414064	1101.98974609375	-519.6420898437501	-382.2022399902344	1114.418579101563	-621.9422607421876	-317.0531005859376	1046.9189453125	-939.207214355469	-305.5985717773438	1043.933837890625	-709.9721679687501	-491.6323547363282	1097.279418945313	-814.6800537109377	-501.1640930175782	1067.084350585938	-840.2195434570315	-500.7825317382814	1068.203857421875	-785.5364379882815	-433.9080200195314	802.4786376953127	-1024.766235351563	-390.806121826172	734.9227905273439	-1051.250732421875	-344.8332214355469	744.1040039062501	-1057.32958984375	-405.7423095703126	677.6519775390626	-1045.670043945313	-375.3082885742188	549.6173706054689	-1068.005493164063	-353.5608825683594	504.695281982422	-944.9729003906252	-340.0464477539063	323.8327026367188	-1082.068481445313	-417.3754882812501	294.4422607421876	-1116.125610351563	-374.2889404296876	284.5741577148438	-1111.730590820313	-362.5985717773438	199.9756317138672	-1095.682250976563	-426.8317871093751	106.1842422485352	-1119.71044921875	-383.4299316406251	112.7687072753907	-1040.8330078125	-475.0893554687501	43.64507675170899	-1072.6826171875	-253.7729187011719	62.52560043334962	-1079.44189453125	-260.4827270507813	62.71416473388673	-1125.585205078125	-311.5638122558594	35.39524841308594	-1167.505493164063	-377.9465026855469	793.3533325195315	-621.3988647460939	-346.0881958007813	734.7389526367189	-621.0899658203126	-313.3764038085938	734.9234619140626	-627.6276855468751	-378.9472656250001	658.6431884765626	-627.9343261718751	-378.9978027343751	522.7857055664064	-626.8375854492189	-373.8412780761719	504.6972045898439	-758.9271850585939	-348.8721618652344	329.9195251464844	-636.2749633789064	-429.6203918457032	262.6900329589844	-612.1094970703126	-385.2987365722657	253.6169738769532	-619.6526489257814	-371.9888000488282	204.2087860107422	-648.7164916992189	-439.4152832031251	97.8391036987305	-626.1139526367189	-406.7177734375001	106.0206909179688	-710.8048095703126	-489.083709716797	45.43754196166993	-691.4752197265626	-268.8885498046876	57.57321929931642	-649.0128784179689	-282.3731079101563	60.06250000000001	-611.4696044921876	-333.1276245117188	35.17455673217774	-568.1076049804689	nan	nan	nan	nan	nan	nan	
152	0.755	-213.5733489990235	1752.24755859375	-875.2965087890627	-341.1258239746094	1698.910888671875	-902.6672363281252	-375.5161743164063	1655.519409179688	-766.7651977539064	-396.5743408203126	1551.524291992188	-825.372741699219	-469.4879455566407	1234.739135742188	-823.4495849609377	-284.4446105957032	1461.370971679688	-826.505798339844	-351.6339111328126	1519.346923828125	-994.8441162109377	-463.723358154297	1414.885498046875	-1132.702880859375	-448.1116638183595	1366.552001953125	-1136.702392578125	-497.210906982422	1368.861328125	-1173.18896484375	-538.6170654296876	1325.110473632813	-1207.989990234375	-590.3187866210939	1317.0087890625	-1152.028686523438	-482.5328063964845	1079.006958007813	-1055.005493164063	-445.0467529296876	1060.766723632813	-1117.0869140625	-425.5545959472657	1084.47509765625	-1019.921325683594	-336.6423645019532	1509.984497070313	-653.8994750976564	-470.4515075683595	1442.678100585938	-516.2388916015626	-453.8908691406251	1398.85107421875	-498.7981262207032	-505.7347717285157	1405.835571289063	-467.998992919922	-528.5499267578126	1350.865844726563	-424.5385742187501	-587.6450805664064	1332.088256835938	-484.3182067871095	-442.3145751953126	1132.396362304688	-585.3212890625001	-415.2806396484376	1100.88232421875	-520.7750244140626	-381.6593933105469	1113.6318359375	-622.9794311523439	-316.7823486328126	1046.49560546875	-939.7254028320315	-305.4916687011719	1043.887451171875	-710.4382324218751	-491.5292968750001	1097.011352539063	-815.2500610351565	-500.7475585937501	1066.66015625	-840.871520996094	-500.6201782226564	1067.928466796875	-786.0866699218752	-433.9025268554689	801.8138427734377	-1024.823974609375	-391.0818481445314	734.3921508789064	-1051.0849609375	-344.9624328613282	743.5173950195314	-1057.30859375	-405.9558105468751	677.1131591796876	-1045.456420898438	-375.6302795410157	549.0726318359376	-1067.6767578125	-353.4137878417969	504.156951904297	-944.7595825195315	-340.2670593261719	323.2062683105469	-1081.819091796875	-417.515594482422	293.7151184082032	-1115.731811523438	-374.6040039062501	283.8443298339844	-1111.111572265625	-362.4531555175782	199.4613800048829	-1095.297485351563	-426.737274169922	105.7304000854492	-1119.320434570313	-383.5134277343751	111.6412353515625	-1040.3935546875	-475.1186523437501	43.49876403808594	-1072.557006835938	-254.683090209961	61.2583465576172	-1078.567993164063	-259.1299133300782	61.14427947998048	-1124.552368164063	-311.2637023925782	35.60839462280274	-1167.159545898438	-377.6399841308594	793.4207153320315	-621.6535034179689	-345.7396545410157	734.6901855468751	-621.3942260742189	-313.1574401855469	734.8070068359376	-627.6469116210939	-378.7548828125001	658.7305908203126	-628.1369628906251	-378.8361816406251	522.7520141601564	-627.0330810546876	-373.5820312500001	504.6572265625001	-759.0947265625001	-348.8425292968751	329.8794250488282	-636.2898559570314	-429.4031982421876	262.7208251953126	-612.1990966796876	-385.2077636718751	253.5626373291016	-619.7415771484376	-371.9019775390626	204.1670989990235	-648.7916259765626	-439.3892517089845	97.83451843261722	-626.1304321289064	-406.6167602539064	106.0224304199219	-710.8532714843751	-489.1067810058595	45.49971008300782	-691.4293212890626	-268.8932495117188	57.56483459472658	-649.0056152343751	-282.3215332031251	60.16272735595705	-611.4140625000001	-333.0717773437501	35.18240356445313	-568.0759277343751	nan	nan	nan	nan	nan	nan	
